<svg width="328" height="102" viewBox="0 0 328 102" fill="none" xmlns="http://www.w3.org/2000/svg">
<g clip-path="url(#clip0_221150_3838)">
<path d="M111.37 46.8V83.6C111.37 93.76 119.61 102 129.77 102C139.93 102 148.17 93.76 148.17 83.6V56H138.97V83.6C138.97 88.68 134.85 92.8 129.77 92.8C124.69 92.8 120.57 88.68 120.57 83.6V46.8H111.37ZM0.970089 51.4H10.1701V42.2H0.970089V51.4ZM203.46 51.4H212.47V42.2H203.46V51.4ZM226.3 35.33C223.09 38.46 221.48 42.3 221.48 46.84C221.48 51.38 223.06 55.2 226.24 58.26C229.41 61.31 233.35 62.83 238.07 62.83C240.93 62.83 243.79 62.09 246.64 60.61V51.32C244.95 53.37 243.48 54.74 242.23 55.45C240.93 56.18 239.44 56.55 237.76 56.55C235.11 56.55 232.93 55.63 231.22 53.8C229.53 51.96 228.69 49.62 228.69 46.76C228.69 43.9 229.57 41.64 231.32 39.78C233.07 37.92 235.27 37 237.92 37C239.61 37 241.08 37.38 242.33 38.13C243.6 38.86 245.04 40.21 246.65 42.17V32.81C243.98 31.37 241.14 30.65 238.14 30.65C233.47 30.65 229.52 32.22 226.31 35.34M258.46 53.85C256.83 52.08 256.02 49.67 256.02 46.62C256.02 43.78 256.86 41.47 258.52 39.67C260.19 37.88 262.37 36.98 265.06 36.98C267.75 36.98 269.99 37.88 271.66 39.67C273.31 41.44 274.13 43.81 274.13 46.77C274.13 49.73 273.3 52.1 271.66 53.87C270.01 55.64 267.81 56.53 265.06 56.53C262.31 56.53 260.13 55.63 258.46 53.84M253.55 35.27C250.4 38.36 248.82 42.1 248.82 46.5C248.82 51.17 250.37 55.05 253.45 58.14C256.54 61.27 260.36 62.83 264.93 62.83C269.5 62.83 273.43 61.3 276.6 58.23C279.75 55.14 281.33 51.31 281.33 46.75C281.33 42.19 279.77 38.4 276.64 35.3C273.47 32.19 269.61 30.64 265.06 30.64C260.51 30.64 256.69 32.19 253.54 35.27M308.11 35.14C306.11 32.13 303.38 30.63 299.94 30.63C298.4 30.63 297.11 30.89 296.09 31.41C295.13 31.91 293.97 32.87 292.62 34.29V31.47H285.58V61.95H292.62V46.21C292.62 43.02 293.07 40.68 293.98 39.2C294.89 37.72 296.33 36.98 298.31 36.98C301.44 36.98 303 39.69 303 45.12V61.95H310.07V46.21C310.07 42.98 310.51 40.63 311.4 39.17C312.29 37.71 313.7 36.98 315.64 36.98C317.31 36.98 318.51 37.6 319.24 38.83C319.95 40.04 320.3 42.11 320.3 45.03V61.96H327.37V43.12C327.37 34.8 323.94 30.63 317.07 30.63C313.3 30.63 310.3 32.13 308.09 35.14M46.9701 19.2V74.4C46.9701 79 42.8501 83.6 37.7701 83.6C32.6901 83.6 28.5701 79.48 28.5701 74.4V37.6H19.3701V74.4C19.3701 84.56 27.6101 92.8 37.7701 92.8C47.9301 92.8 56.1701 84.56 56.1701 74.4V19.2H46.9701ZM184.97 9.99999V65.2C184.97 70.28 180.85 74.4 175.77 74.4C170.69 74.4 166.57 70.28 166.57 65.2V37.6H157.37V65.2C157.37 75.36 165.61 83.6 175.77 83.6C185.93 83.6 194.17 75.36 194.17 65.2V9.99999H184.97ZM65.3701 0.799988V74.4H74.5701V46.8C74.5701 41.72 78.6901 37.6 83.7701 37.6C88.8501 37.6 92.9701 41.72 92.9701 46.8V83.6H102.17V46.8C102.17 36.64 93.9301 28.4 83.7701 28.4C80.4201 28.4 77.2801 29.3 74.5701 30.87V0.799988H65.3701Z" fill="#EE3680"/>
</g>
<defs>
<clipPath id="clip0_221150_3838">
<rect width="328" height="102" fill="white"/>
</clipPath>
</defs>
</svg>
